<svg t="1698231238784" class="icon" viewBox="0 0 1024 1024" version="1.1" xmlns="http://www.w3.org/2000/svg" p-id="1426" width="100" height="100"><path d="M928 960a32 32 0 1 1 0 64h-832a32 32 0 1 1 0-64h832zM512 0a256 256 0 0 1 123.392 480.32L663.872 576 832 576a128 128 0 0 1 128 128v64a128 128 0 0 1-128 128H192a128 128 0 0 1-128-128v-64a128 128 0 0 1 128-128h168.704l30.656-94.208A256 256 0 0 1 512 0z m0 64a192 192 0 0 0-69.76 370.88l1.728 0.832 1.856 0.832 0.96 0.576-4.544-2.24a32.128 32.128 0 0 1 20.096 34.112l-0.192 1.024a31.872 31.872 0 0 1-0.448 2.24l-0.64 2.368-46.656 143.296a32 32 0 0 1-30.336 22.08H192a64 64 0 0 0-63.552 56.512L128 704v64a64 64 0 0 0 56.512 63.552L192 832h640a64 64 0 0 0 63.552-56.512L896 768v-64a64 64 0 0 0-56.512-63.552L832 640h-192a32 32 0 0 1-30.72-22.848l-43.072-144.704-0.32-1.472-0.32-1.024a31.808 31.808 0 0 1-0.256-1.664l0.896 4.16a32.064 32.064 0 0 1 18.56-38.72A192 192 0 0 0 512 63.936z" p-id="1427"></path></svg>